<mxfile host="Electron" agent="Mozilla/5.0 (Windows NT 10.0; Win64; x64) AppleWebKit/537.36 (KHTML, like Gecko) draw.io/28.0.6 Chrome/138.0.7204.100 Electron/37.2.3 Safari/537.36" version="28.0.6">
  <diagram name="Page-1" id="b648Rsb0jenOXIeRpbgr">
    <mxGraphModel dx="1303" dy="903" grid="1" gridSize="10" guides="0" tooltips="1" connect="1" arrows="1" fold="1" page="1" pageScale="1" pageWidth="1100" pageHeight="850" math="0" shadow="0">
      <root>
        <mxCell id="0" />
        <mxCell id="1" parent="0" />
        <mxCell id="UVEDoom5NtU_PXQmaUk9-44" value="" style="edgeStyle=orthogonalEdgeStyle;rounded=0;orthogonalLoop=1;jettySize=auto;html=1;dashed=1;dashPattern=8 8;endArrow=classic;endFill=1;" parent="1" source="UVEDoom5NtU_PXQmaUk9-18" target="UVEDoom5NtU_PXQmaUk9-6" edge="1">
          <mxGeometry relative="1" as="geometry">
            <Array as="points">
              <mxPoint x="169" y="630" />
              <mxPoint x="169" y="630" />
            </Array>
          </mxGeometry>
        </mxCell>
        <mxCell id="UVEDoom5NtU_PXQmaUk9-85" value="Authorize" style="edgeLabel;html=1;align=center;verticalAlign=middle;resizable=0;points=[];fontStyle=2;fontColor=light-dark(#1074e0, #ededed);" parent="UVEDoom5NtU_PXQmaUk9-44" vertex="1" connectable="0">
          <mxGeometry x="-0.0779" relative="1" as="geometry">
            <mxPoint x="1" as="offset" />
          </mxGeometry>
        </mxCell>
        <mxCell id="UVEDoom5NtU_PXQmaUk9-37" value="EKS" style="fillColor=none;strokeColor=#5A6C86;dashed=1;verticalAlign=top;fontStyle=0;fontColor=#5A6C86;whiteSpace=wrap;html=1;align=left;spacingRight=0;spacing=10;spacingTop=0;spacingLeft=40;movable=1;resizable=1;rotatable=1;deletable=1;editable=1;locked=0;connectable=1;container=0;" parent="1" vertex="1">
          <mxGeometry x="380" y="160" width="560" height="240" as="geometry" />
        </mxCell>
        <mxCell id="UVEDoom5NtU_PXQmaUk9-50" style="edgeStyle=orthogonalEdgeStyle;rounded=0;orthogonalLoop=1;jettySize=auto;html=1;" parent="1" source="UVEDoom5NtU_PXQmaUk9-13" target="UVEDoom5NtU_PXQmaUk9-15" edge="1">
          <mxGeometry relative="1" as="geometry">
            <mxPoint x="1030" y="130" as="sourcePoint" />
            <Array as="points">
              <mxPoint x="500" y="234" />
              <mxPoint x="500" y="190" />
            </Array>
          </mxGeometry>
        </mxCell>
        <mxCell id="UVEDoom5NtU_PXQmaUk9-73" value="Deploy" style="edgeLabel;html=1;align=center;verticalAlign=middle;resizable=0;points=[];fontStyle=2;fontColor=light-dark(#1074e0, #ededed);" parent="UVEDoom5NtU_PXQmaUk9-50" vertex="1" connectable="0">
          <mxGeometry x="0.4013" y="1" relative="1" as="geometry">
            <mxPoint as="offset" />
          </mxGeometry>
        </mxCell>
        <mxCell id="UVEDoom5NtU_PXQmaUk9-5" value="Github Repository&lt;div&gt;&lt;br&gt;ArgoCD&lt;div&gt;&lt;span style=&quot;background-color: transparent; color: light-dark(rgb(35, 47, 61), rgb(190, 200, 212));&quot;&gt;App of Apps Manifests&lt;/span&gt;&lt;/div&gt;&lt;/div&gt;" style="fillColor=#EFF0F3;strokeColor=none;dashed=0;verticalAlign=top;fontStyle=0;fontColor=#232F3D;whiteSpace=wrap;html=1;container=0;" parent="1" vertex="1">
          <mxGeometry x="90" y="80" width="120" height="80" as="geometry" />
        </mxCell>
        <mxCell id="UVEDoom5NtU_PXQmaUk9-47" style="edgeStyle=orthogonalEdgeStyle;rounded=0;orthogonalLoop=1;jettySize=auto;html=1;exitX=1;exitY=0.5;exitDx=0;exitDy=0;entryX=0;entryY=0;entryDx=0;entryDy=0;" parent="1" source="UVEDoom5NtU_PXQmaUk9-6" target="UVEDoom5NtU_PXQmaUk9-36" edge="1">
          <mxGeometry relative="1" as="geometry">
            <Array as="points">
              <mxPoint x="230" y="580" />
              <mxPoint x="230" y="130" />
            </Array>
          </mxGeometry>
        </mxCell>
        <mxCell id="UVEDoom5NtU_PXQmaUk9-71" value="&lt;i&gt;Create&lt;/i&gt;" style="edgeLabel;html=1;align=center;verticalAlign=middle;resizable=0;points=[];fontColor=light-dark(#1074e0, #ededed);" parent="UVEDoom5NtU_PXQmaUk9-47" vertex="1" connectable="0">
          <mxGeometry x="0.9009" y="1" relative="1" as="geometry">
            <mxPoint x="-51" y="1" as="offset" />
          </mxGeometry>
        </mxCell>
        <mxCell id="UVEDoom5NtU_PXQmaUk9-48" style="edgeStyle=orthogonalEdgeStyle;rounded=0;orthogonalLoop=1;jettySize=auto;html=1;entryX=0;entryY=0;entryDx=0;entryDy=0;" parent="1" source="UVEDoom5NtU_PXQmaUk9-6" target="UVEDoom5NtU_PXQmaUk9-37" edge="1">
          <mxGeometry relative="1" as="geometry">
            <Array as="points">
              <mxPoint x="230" y="580" />
              <mxPoint x="230" y="160" />
            </Array>
          </mxGeometry>
        </mxCell>
        <mxCell id="UVEDoom5NtU_PXQmaUk9-70" value="&lt;i&gt;Create&lt;/i&gt;" style="edgeLabel;html=1;align=center;verticalAlign=middle;resizable=0;points=[];fontColor=light-dark(#1074e0, #ededed);" parent="UVEDoom5NtU_PXQmaUk9-48" vertex="1" connectable="0">
          <mxGeometry x="0.8056" y="1" relative="1" as="geometry">
            <mxPoint x="-62" as="offset" />
          </mxGeometry>
        </mxCell>
        <mxCell id="UVEDoom5NtU_PXQmaUk9-52" style="edgeStyle=orthogonalEdgeStyle;rounded=0;orthogonalLoop=1;jettySize=auto;html=1;" parent="1" source="UVEDoom5NtU_PXQmaUk9-6" target="UVEDoom5NtU_PXQmaUk9-16" edge="1">
          <mxGeometry relative="1" as="geometry">
            <Array as="points">
              <mxPoint x="230" y="580" />
              <mxPoint x="230" y="320" />
            </Array>
          </mxGeometry>
        </mxCell>
        <mxCell id="UVEDoom5NtU_PXQmaUk9-68" value="&lt;i&gt;Create&lt;/i&gt;" style="edgeLabel;html=1;align=center;verticalAlign=middle;resizable=0;points=[];fontColor=light-dark(#1074e0, #ededed);" parent="UVEDoom5NtU_PXQmaUk9-52" vertex="1" connectable="0">
          <mxGeometry x="0.5758" y="1" relative="1" as="geometry">
            <mxPoint x="-59" as="offset" />
          </mxGeometry>
        </mxCell>
        <mxCell id="UVEDoom5NtU_PXQmaUk9-54" style="edgeStyle=orthogonalEdgeStyle;rounded=0;orthogonalLoop=1;jettySize=auto;html=1;" parent="1" source="UVEDoom5NtU_PXQmaUk9-6" target="UVEDoom5NtU_PXQmaUk9-53" edge="1">
          <mxGeometry relative="1" as="geometry">
            <Array as="points">
              <mxPoint x="230" y="580" />
              <mxPoint x="230" y="500" />
            </Array>
          </mxGeometry>
        </mxCell>
        <mxCell id="UVEDoom5NtU_PXQmaUk9-67" value="&lt;i&gt;Create&lt;/i&gt;" style="edgeLabel;html=1;align=center;verticalAlign=middle;resizable=0;points=[];fontColor=light-dark(#1074e0, #ededed);" parent="UVEDoom5NtU_PXQmaUk9-54" vertex="1" connectable="0">
          <mxGeometry x="0.6295" relative="1" as="geometry">
            <mxPoint x="-66" as="offset" />
          </mxGeometry>
        </mxCell>
        <mxCell id="UVEDoom5NtU_PXQmaUk9-79" style="edgeStyle=orthogonalEdgeStyle;rounded=0;orthogonalLoop=1;jettySize=auto;html=1;exitX=1;exitY=0.75;exitDx=0;exitDy=0;" parent="1" source="UVEDoom5NtU_PXQmaUk9-6" target="UVEDoom5NtU_PXQmaUk9-31" edge="1">
          <mxGeometry relative="1" as="geometry">
            <Array as="points">
              <mxPoint x="230" y="600" />
              <mxPoint x="230" y="680" />
            </Array>
          </mxGeometry>
        </mxCell>
        <mxCell id="UVEDoom5NtU_PXQmaUk9-89" value="&lt;i style=&quot;color: rgb(16, 116, 224);&quot;&gt;Create&lt;/i&gt;" style="edgeLabel;html=1;align=center;verticalAlign=middle;resizable=0;points=[];" parent="UVEDoom5NtU_PXQmaUk9-79" vertex="1" connectable="0">
          <mxGeometry x="0.077" relative="1" as="geometry">
            <mxPoint as="offset" />
          </mxGeometry>
        </mxCell>
        <mxCell id="UVEDoom5NtU_PXQmaUk9-6" value="Terraform" style="fillColor=#EFF0F3;strokeColor=none;dashed=0;verticalAlign=middle;fontStyle=0;fontColor=#232F3D;whiteSpace=wrap;html=1;movable=1;resizable=1;rotatable=1;deletable=1;editable=1;locked=0;connectable=1;container=0;" parent="1" vertex="1">
          <mxGeometry x="130" y="540" width="80" height="80" as="geometry" />
        </mxCell>
        <mxCell id="UVEDoom5NtU_PXQmaUk9-7" value="AWS SPOKE&lt;span style=&quot;background-color: transparent; color: light-dark(rgb(205, 34, 100), rgb(255, 137, 194));&quot;&gt;&amp;nbsp;Account&lt;/span&gt;" style="points=[[0,0],[0.25,0],[0.5,0],[0.75,0],[1,0],[1,0.25],[1,0.5],[1,0.75],[1,1],[0.75,1],[0.5,1],[0.25,1],[0,1],[0,0.75],[0,0.5],[0,0.25]];outlineConnect=0;gradientColor=none;html=1;whiteSpace=wrap;fontSize=12;fontStyle=0;container=0;pointerEvents=0;collapsible=0;recursiveResize=0;shape=mxgraph.aws4.group;grIcon=mxgraph.aws4.group_account;strokeColor=#CD2264;fillColor=none;verticalAlign=top;align=left;spacingLeft=30;fontColor=#CD2264;dashed=0;movable=1;resizable=1;rotatable=1;deletable=1;editable=1;locked=0;connectable=1;" parent="1" vertex="1">
          <mxGeometry x="310" y="600" width="720" height="140" as="geometry" />
        </mxCell>
        <mxCell id="UVEDoom5NtU_PXQmaUk9-18" value="Longterm AWS&lt;br&gt;Profile" style="sketch=0;outlineConnect=0;fontColor=#232F3E;gradientColor=none;fillColor=#DD344C;strokeColor=none;dashed=0;verticalLabelPosition=bottom;verticalAlign=top;align=center;html=1;fontSize=12;fontStyle=0;aspect=fixed;pointerEvents=1;shape=mxgraph.aws4.long_term_security_credential;movable=1;resizable=1;rotatable=1;deletable=1;editable=1;locked=0;connectable=1;container=0;labelPosition=center;" parent="1" vertex="1">
          <mxGeometry x="142" y="720" width="56.52" height="50" as="geometry" />
        </mxCell>
        <mxCell id="UVEDoom5NtU_PXQmaUk9-45" value="" style="edgeStyle=orthogonalEdgeStyle;rounded=0;orthogonalLoop=1;jettySize=auto;html=1;dashed=1;dashPattern=8 8;endArrow=classic;endFill=1;" parent="1" source="UVEDoom5NtU_PXQmaUk9-19" target="UVEDoom5NtU_PXQmaUk9-6" edge="1">
          <mxGeometry relative="1" as="geometry">
            <Array as="points">
              <mxPoint x="169" y="530" />
              <mxPoint x="169" y="530" />
            </Array>
          </mxGeometry>
        </mxCell>
        <mxCell id="UVEDoom5NtU_PXQmaUk9-86" value="Aut&lt;span style=&quot;background-color: light-dark(#ffffff, var(--ge-dark-color, #121212));&quot;&gt;horize&lt;/span&gt;" style="edgeLabel;html=1;align=center;verticalAlign=middle;resizable=0;points=[];fontStyle=2;fontColor=light-dark(#1074e0, #ededed);" parent="UVEDoom5NtU_PXQmaUk9-45" vertex="1" connectable="0">
          <mxGeometry x="-0.0981" y="1" relative="1" as="geometry">
            <mxPoint y="1" as="offset" />
          </mxGeometry>
        </mxCell>
        <mxCell id="UVEDoom5NtU_PXQmaUk9-19" value="Longterm AWS&lt;br&gt;Profile" style="sketch=0;outlineConnect=0;fontColor=#232F3E;gradientColor=none;fillColor=#DD344C;strokeColor=none;dashed=0;verticalLabelPosition=top;verticalAlign=bottom;align=center;html=1;fontSize=12;fontStyle=0;aspect=fixed;pointerEvents=1;shape=mxgraph.aws4.long_term_security_credential;movable=1;resizable=1;rotatable=1;deletable=1;editable=1;locked=0;connectable=1;container=0;labelPosition=center;" parent="1" vertex="1">
          <mxGeometry x="141" y="390" width="56.52" height="50" as="geometry" />
        </mxCell>
        <mxCell id="UVEDoom5NtU_PXQmaUk9-56" style="edgeStyle=orthogonalEdgeStyle;rounded=0;orthogonalLoop=1;jettySize=auto;html=1;dashed=1;dashPattern=8 8;startArrow=classic;startFill=1;" parent="1" source="UVEDoom5NtU_PXQmaUk9-13" target="UVEDoom5NtU_PXQmaUk9-5" edge="1">
          <mxGeometry relative="1" as="geometry">
            <mxPoint x="1030" y="100" as="targetPoint" />
            <Array as="points">
              <mxPoint x="480" y="220" />
              <mxPoint x="480" y="80" />
            </Array>
          </mxGeometry>
        </mxCell>
        <mxCell id="l_oBnXLqnLCH0bD2Jdfw-11" value="&lt;span style=&quot;color: rgb(16, 116, 224); font-style: italic;&quot;&gt;Sync&lt;/span&gt;" style="edgeLabel;html=1;align=center;verticalAlign=middle;resizable=0;points=[];" vertex="1" connectable="0" parent="UVEDoom5NtU_PXQmaUk9-56">
          <mxGeometry x="0.2146" y="-2" relative="1" as="geometry">
            <mxPoint x="100" y="2" as="offset" />
          </mxGeometry>
        </mxCell>
        <mxCell id="UVEDoom5NtU_PXQmaUk9-13" value="ArgoCD&amp;nbsp;&lt;div&gt;Bootstraper&lt;br&gt;Deployment&lt;/div&gt;" style="sketch=0;outlineConnect=0;fontColor=#232F3E;gradientColor=none;fillColor=#ED7100;strokeColor=none;dashed=0;verticalLabelPosition=bottom;verticalAlign=top;align=center;html=1;fontSize=12;fontStyle=0;aspect=fixed;pointerEvents=1;shape=mxgraph.aws4.ecs_service;movable=1;resizable=1;rotatable=1;deletable=1;editable=1;locked=0;connectable=1;container=0;" parent="1" vertex="1">
          <mxGeometry x="420" y="210" width="39" height="48" as="geometry" />
        </mxCell>
        <mxCell id="UVEDoom5NtU_PXQmaUk9-9" value="" style="sketch=0;points=[[0,0,0],[0.25,0,0],[0.5,0,0],[0.75,0,0],[1,0,0],[0,1,0],[0.25,1,0],[0.5,1,0],[0.75,1,0],[1,1,0],[0,0.25,0],[0,0.5,0],[0,0.75,0],[1,0.25,0],[1,0.5,0],[1,0.75,0]];outlineConnect=0;fontColor=#232F3E;fillColor=#ED7100;strokeColor=#ffffff;dashed=0;verticalLabelPosition=bottom;verticalAlign=top;align=center;html=1;fontSize=12;fontStyle=0;aspect=fixed;shape=mxgraph.aws4.resourceIcon;resIcon=mxgraph.aws4.eks;movable=1;resizable=1;rotatable=1;deletable=1;editable=1;locked=0;connectable=1;container=0;" parent="1" vertex="1">
          <mxGeometry x="380" y="160" width="40" height="40" as="geometry" />
        </mxCell>
        <mxCell id="UVEDoom5NtU_PXQmaUk9-17" value="&lt;div&gt;&lt;div&gt;&lt;div&gt;&lt;div&gt;Cluster Addons&lt;/div&gt;&lt;/div&gt;&lt;/div&gt;&lt;/div&gt;" style="sketch=0;outlineConnect=0;fontColor=#232F3E;gradientColor=none;fillColor=#ED7100;strokeColor=none;dashed=0;verticalLabelPosition=top;verticalAlign=bottom;align=center;html=1;fontSize=12;fontStyle=0;aspect=fixed;pointerEvents=1;shape=mxgraph.aws4.ecs_service;movable=1;resizable=1;rotatable=1;deletable=1;editable=1;locked=0;connectable=1;container=0;labelPosition=center;" parent="1" vertex="1">
          <mxGeometry x="860" y="320" width="39" height="48" as="geometry" />
        </mxCell>
        <mxCell id="UVEDoom5NtU_PXQmaUk9-16" value="Git Credential Secret" style="sketch=0;outlineConnect=0;fontColor=#232F3E;gradientColor=none;fillColor=#ED7100;strokeColor=none;dashed=0;verticalLabelPosition=bottom;verticalAlign=top;align=center;html=1;fontSize=12;fontStyle=0;aspect=fixed;pointerEvents=1;shape=mxgraph.aws4.ecs_service;movable=1;resizable=1;rotatable=1;deletable=1;editable=1;locked=0;connectable=1;container=0;" parent="1" vertex="1">
          <mxGeometry x="420" y="320" width="39" height="48" as="geometry" />
        </mxCell>
        <mxCell id="UVEDoom5NtU_PXQmaUk9-55" style="edgeStyle=orthogonalEdgeStyle;rounded=0;orthogonalLoop=1;jettySize=auto;html=1;dashed=1;dashPattern=8 8;" parent="1" source="UVEDoom5NtU_PXQmaUk9-16" target="UVEDoom5NtU_PXQmaUk9-13" edge="1">
          <mxGeometry relative="1" as="geometry">
            <mxPoint x="1030" y="100" as="targetPoint" />
            <Array as="points">
              <mxPoint x="510" y="330" />
              <mxPoint x="510" y="250" />
            </Array>
          </mxGeometry>
        </mxCell>
        <mxCell id="UVEDoom5NtU_PXQmaUk9-88" value="&lt;span style=&quot;color: rgb(16, 116, 224); font-style: italic;&quot;&gt;Authorize&lt;/span&gt;" style="edgeLabel;html=1;align=center;verticalAlign=middle;resizable=0;points=[];" parent="UVEDoom5NtU_PXQmaUk9-55" vertex="1" connectable="0">
          <mxGeometry x="-0.7503" y="3" relative="1" as="geometry">
            <mxPoint x="29" y="-47" as="offset" />
          </mxGeometry>
        </mxCell>
        <mxCell id="UVEDoom5NtU_PXQmaUk9-59" style="edgeStyle=orthogonalEdgeStyle;rounded=0;orthogonalLoop=1;jettySize=auto;html=1;" parent="1" source="UVEDoom5NtU_PXQmaUk9-15" target="UVEDoom5NtU_PXQmaUk9-39" edge="1">
          <mxGeometry relative="1" as="geometry">
            <Array as="points">
              <mxPoint x="569" y="240" />
              <mxPoint x="630" y="240" />
              <mxPoint x="630" y="344" />
            </Array>
          </mxGeometry>
        </mxCell>
        <mxCell id="UVEDoom5NtU_PXQmaUk9-60" style="edgeStyle=orthogonalEdgeStyle;rounded=0;orthogonalLoop=1;jettySize=auto;html=1;" parent="1" source="UVEDoom5NtU_PXQmaUk9-15" target="UVEDoom5NtU_PXQmaUk9-17" edge="1">
          <mxGeometry relative="1" as="geometry">
            <Array as="points">
              <mxPoint x="569" y="240" />
              <mxPoint x="820" y="240" />
              <mxPoint x="820" y="344" />
            </Array>
          </mxGeometry>
        </mxCell>
        <mxCell id="l_oBnXLqnLCH0bD2Jdfw-15" style="edgeStyle=orthogonalEdgeStyle;rounded=0;orthogonalLoop=1;jettySize=auto;html=1;" edge="1" parent="1" source="UVEDoom5NtU_PXQmaUk9-15" target="l_oBnXLqnLCH0bD2Jdfw-14">
          <mxGeometry relative="1" as="geometry">
            <Array as="points">
              <mxPoint x="960" y="204" />
            </Array>
          </mxGeometry>
        </mxCell>
        <mxCell id="l_oBnXLqnLCH0bD2Jdfw-17" value="&lt;span style=&quot;color: rgb(16, 116, 224); font-style: italic;&quot;&gt;Deploy (optional)&lt;/span&gt;" style="edgeLabel;html=1;align=center;verticalAlign=middle;resizable=0;points=[];" vertex="1" connectable="0" parent="l_oBnXLqnLCH0bD2Jdfw-15">
          <mxGeometry x="-0.9154" y="-1" relative="1" as="geometry">
            <mxPoint x="32" as="offset" />
          </mxGeometry>
        </mxCell>
        <mxCell id="UVEDoom5NtU_PXQmaUk9-15" value="Kro Controller+RG" style="sketch=0;outlineConnect=0;fontColor=#232F3E;gradientColor=none;fillColor=#ED7100;strokeColor=none;dashed=0;verticalLabelPosition=top;verticalAlign=bottom;align=center;html=1;fontSize=12;fontStyle=0;aspect=fixed;pointerEvents=1;shape=mxgraph.aws4.ecs_service;movable=1;resizable=1;rotatable=1;deletable=1;editable=1;locked=0;connectable=1;container=0;labelPosition=center;" parent="1" vertex="1">
          <mxGeometry x="550" y="180" width="39" height="48" as="geometry" />
        </mxCell>
        <mxCell id="UVEDoom5NtU_PXQmaUk9-80" style="edgeStyle=orthogonalEdgeStyle;rounded=0;orthogonalLoop=1;jettySize=auto;html=1;dashed=1;dashPattern=8 8;endArrow=none;endFill=0;" parent="1" source="UVEDoom5NtU_PXQmaUk9-31" target="UVEDoom5NtU_PXQmaUk9-38" edge="1">
          <mxGeometry relative="1" as="geometry">
            <mxPoint x="360.00000000000045" y="635.95" as="sourcePoint" />
            <mxPoint x="610" y="300" as="targetPoint" />
            <Array as="points">
              <mxPoint x="530" y="680" />
              <mxPoint x="530" y="320" />
            </Array>
          </mxGeometry>
        </mxCell>
        <mxCell id="UVEDoom5NtU_PXQmaUk9-31" value="Role: ACK IAM Controller" style="sketch=0;outlineConnect=0;fontColor=#232F3E;gradientColor=none;fillColor=#DD344C;strokeColor=none;dashed=0;verticalLabelPosition=bottom;verticalAlign=top;align=center;html=1;fontSize=12;fontStyle=0;aspect=fixed;pointerEvents=1;shape=mxgraph.aws4.role;" parent="1" vertex="1">
          <mxGeometry x="370" y="640" width="78" height="44" as="geometry" />
        </mxCell>
        <mxCell id="UVEDoom5NtU_PXQmaUk9-35" value="AWS HUB Account" style="points=[[0,0],[0.25,0],[0.5,0],[0.75,0],[1,0],[1,0.25],[1,0.5],[1,0.75],[1,1],[0.75,1],[0.5,1],[0.25,1],[0,1],[0,0.75],[0,0.5],[0,0.25]];outlineConnect=0;gradientColor=none;html=1;whiteSpace=wrap;fontSize=12;fontStyle=0;container=0;pointerEvents=0;collapsible=0;recursiveResize=0;shape=mxgraph.aws4.group;grIcon=mxgraph.aws4.group_account;strokeColor=#CD2264;fillColor=none;verticalAlign=top;align=left;spacingLeft=30;fontColor=#CD2264;dashed=0;movable=1;resizable=1;rotatable=1;deletable=1;editable=1;locked=0;connectable=1;" parent="1" vertex="1">
          <mxGeometry x="310" y="100" width="720" height="460" as="geometry" />
        </mxCell>
        <mxCell id="UVEDoom5NtU_PXQmaUk9-36" value="VPC" style="points=[[0,0],[0.25,0],[0.5,0],[0.75,0],[1,0],[1,0.25],[1,0.5],[1,0.75],[1,1],[0.75,1],[0.5,1],[0.25,1],[0,1],[0,0.75],[0,0.5],[0,0.25]];outlineConnect=0;gradientColor=none;html=1;whiteSpace=wrap;fontSize=12;fontStyle=0;container=0;pointerEvents=0;collapsible=0;recursiveResize=0;shape=mxgraph.aws4.group;grIcon=mxgraph.aws4.group_vpc2;strokeColor=#8C4FFF;fillColor=none;verticalAlign=top;align=left;spacingLeft=30;fontColor=#AAB7B8;dashed=0;movable=1;resizable=1;rotatable=1;deletable=1;editable=1;locked=0;connectable=1;" parent="1" vertex="1">
          <mxGeometry x="340" y="130" width="640" height="290" as="geometry" />
        </mxCell>
        <mxCell id="UVEDoom5NtU_PXQmaUk9-62" style="edgeStyle=orthogonalEdgeStyle;rounded=0;orthogonalLoop=1;jettySize=auto;html=1;" parent="1" source="UVEDoom5NtU_PXQmaUk9-38" target="UVEDoom5NtU_PXQmaUk9-40" edge="1">
          <mxGeometry relative="1" as="geometry">
            <Array as="points">
              <mxPoint x="560" y="500" />
            </Array>
          </mxGeometry>
        </mxCell>
        <mxCell id="UVEDoom5NtU_PXQmaUk9-66" style="edgeStyle=orthogonalEdgeStyle;rounded=0;orthogonalLoop=1;jettySize=auto;html=1;" parent="1" source="UVEDoom5NtU_PXQmaUk9-39" target="UVEDoom5NtU_PXQmaUk9-41" edge="1">
          <mxGeometry relative="1" as="geometry">
            <Array as="points">
              <mxPoint x="750" y="560" />
              <mxPoint x="750" y="560" />
            </Array>
          </mxGeometry>
        </mxCell>
        <mxCell id="UVEDoom5NtU_PXQmaUk9-78" value="Create" style="edgeLabel;html=1;align=center;verticalAlign=middle;resizable=0;points=[];fontStyle=2;fontColor=light-dark(#1074e0, #ededed);" parent="UVEDoom5NtU_PXQmaUk9-66" vertex="1" connectable="0">
          <mxGeometry x="0.1972" relative="1" as="geometry">
            <mxPoint y="-50" as="offset" />
          </mxGeometry>
        </mxCell>
        <mxCell id="UVEDoom5NtU_PXQmaUk9-39" value="Other&amp;nbsp;&lt;span style=&quot;background-color: transparent; color: light-dark(rgb(35, 47, 62), rgb(189, 199, 212));&quot;&gt;Controllers&lt;/span&gt;" style="sketch=0;outlineConnect=0;fontColor=#232F3E;gradientColor=none;fillColor=#ED7100;strokeColor=none;dashed=0;verticalLabelPosition=top;verticalAlign=bottom;align=center;html=1;fontSize=12;fontStyle=0;aspect=fixed;pointerEvents=1;shape=mxgraph.aws4.ecs_service;labelPosition=center;" parent="1" vertex="1">
          <mxGeometry x="720" y="320" width="39" height="48" as="geometry" />
        </mxCell>
        <mxCell id="UVEDoom5NtU_PXQmaUk9-65" style="edgeStyle=orthogonalEdgeStyle;rounded=0;orthogonalLoop=1;jettySize=auto;html=1;dashed=1;dashPattern=8 8;endArrow=none;endFill=0;" parent="1" source="UVEDoom5NtU_PXQmaUk9-40" target="UVEDoom5NtU_PXQmaUk9-39" edge="1">
          <mxGeometry relative="1" as="geometry">
            <Array as="points">
              <mxPoint x="700" y="500" />
              <mxPoint x="700" y="360" />
            </Array>
            <mxPoint x="740" y="370" as="targetPoint" />
          </mxGeometry>
        </mxCell>
        <mxCell id="UVEDoom5NtU_PXQmaUk9-40" value="Role: Other&amp;nbsp;&amp;nbsp;&lt;span style=&quot;background-color: transparent; color: light-dark(rgb(35, 47, 62), rgb(189, 199, 212));&quot;&gt;Controllers&lt;/span&gt;" style="sketch=0;outlineConnect=0;fontColor=#232F3E;gradientColor=none;fillColor=#DD344C;strokeColor=none;dashed=0;verticalLabelPosition=bottom;verticalAlign=top;align=center;html=1;fontSize=12;fontStyle=0;aspect=fixed;pointerEvents=1;shape=mxgraph.aws4.role;" parent="1" vertex="1">
          <mxGeometry x="590" y="460" width="78" height="44" as="geometry" />
        </mxCell>
        <mxCell id="UVEDoom5NtU_PXQmaUk9-41" value="Cloud Infrastructure&lt;br&gt;&lt;br&gt;Based on RG" style="fillColor=#EFF0F3;strokeColor=none;dashed=0;verticalAlign=top;fontStyle=0;fontColor=#232F3D;whiteSpace=wrap;html=1;" parent="1" vertex="1">
          <mxGeometry x="750" y="640" width="130" height="60" as="geometry" />
        </mxCell>
        <mxCell id="UVEDoom5NtU_PXQmaUk9-49" style="edgeStyle=orthogonalEdgeStyle;rounded=0;orthogonalLoop=1;jettySize=auto;html=1;exitX=1;exitY=0.5;exitDx=0;exitDy=0;" parent="1" source="UVEDoom5NtU_PXQmaUk9-6" target="UVEDoom5NtU_PXQmaUk9-13" edge="1">
          <mxGeometry relative="1" as="geometry">
            <Array as="points">
              <mxPoint x="230" y="580" />
              <mxPoint x="230" y="210" />
            </Array>
          </mxGeometry>
        </mxCell>
        <mxCell id="UVEDoom5NtU_PXQmaUk9-69" value="&lt;i&gt;Create&lt;/i&gt;" style="edgeLabel;html=1;align=center;verticalAlign=middle;resizable=0;points=[];fontColor=light-dark(#1074e0, #ededed);" parent="UVEDoom5NtU_PXQmaUk9-49" vertex="1" connectable="0">
          <mxGeometry x="0.6606" y="1" relative="1" as="geometry">
            <mxPoint x="-63" as="offset" />
          </mxGeometry>
        </mxCell>
        <mxCell id="UVEDoom5NtU_PXQmaUk9-64" style="edgeStyle=orthogonalEdgeStyle;rounded=0;orthogonalLoop=1;jettySize=auto;html=1;dashed=1;dashPattern=8 8;endArrow=classic;endFill=1;" parent="1" source="UVEDoom5NtU_PXQmaUk9-53" target="UVEDoom5NtU_PXQmaUk9-38" edge="1">
          <mxGeometry relative="1" as="geometry">
            <mxPoint x="409.00000000000045" y="490" as="sourcePoint" />
            <mxPoint x="550.1330909090912" y="300.0026315789475" as="targetPoint" />
            <Array as="points">
              <mxPoint x="530" y="500" />
              <mxPoint x="530" y="360" />
            </Array>
          </mxGeometry>
        </mxCell>
        <mxCell id="l_oBnXLqnLCH0bD2Jdfw-10" value="&lt;span style=&quot;color: rgb(16, 116, 224); font-style: italic;&quot;&gt;Authorize&lt;/span&gt;" style="edgeLabel;html=1;align=center;verticalAlign=middle;resizable=0;points=[];" vertex="1" connectable="0" parent="UVEDoom5NtU_PXQmaUk9-64">
          <mxGeometry x="-0.2919" y="1" relative="1" as="geometry">
            <mxPoint x="1" y="-17" as="offset" />
          </mxGeometry>
        </mxCell>
        <mxCell id="UVEDoom5NtU_PXQmaUk9-53" value="Role: ACK IAM&amp;nbsp;&lt;span style=&quot;background-color: transparent; color: light-dark(rgb(35, 47, 62), rgb(189, 199, 212));&quot;&gt;Controller&lt;/span&gt;" style="sketch=0;outlineConnect=0;fontColor=#232F3E;gradientColor=none;fillColor=#DD344C;strokeColor=none;dashed=0;verticalLabelPosition=bottom;verticalAlign=top;align=center;html=1;fontSize=12;fontStyle=0;aspect=fixed;pointerEvents=1;shape=mxgraph.aws4.role;" parent="1" vertex="1">
          <mxGeometry x="370" y="460" width="78" height="44" as="geometry" />
        </mxCell>
        <mxCell id="UVEDoom5NtU_PXQmaUk9-82" value="" style="edgeStyle=orthogonalEdgeStyle;rounded=0;orthogonalLoop=1;jettySize=auto;html=1;" parent="1" source="UVEDoom5NtU_PXQmaUk9-15" target="UVEDoom5NtU_PXQmaUk9-38" edge="1">
          <mxGeometry relative="1" as="geometry">
            <mxPoint x="559" y="228" as="sourcePoint" />
            <mxPoint x="740" y="344" as="targetPoint" />
            <Array as="points">
              <mxPoint x="569" y="240" />
              <mxPoint x="630" y="240" />
              <mxPoint x="630" y="344" />
            </Array>
          </mxGeometry>
        </mxCell>
        <mxCell id="UVEDoom5NtU_PXQmaUk9-87" value="&lt;i&gt;&lt;font style=&quot;color: light-dark(rgb(16, 116, 224), rgb(237, 237, 237));&quot;&gt;Deploy&lt;/font&gt;&lt;/i&gt;" style="edgeLabel;html=1;align=center;verticalAlign=middle;resizable=0;points=[];" parent="UVEDoom5NtU_PXQmaUk9-82" vertex="1" connectable="0">
          <mxGeometry x="-0.1464" y="-2" relative="1" as="geometry">
            <mxPoint x="5" y="-22" as="offset" />
          </mxGeometry>
        </mxCell>
        <mxCell id="l_oBnXLqnLCH0bD2Jdfw-4" style="edgeStyle=orthogonalEdgeStyle;rounded=0;orthogonalLoop=1;jettySize=auto;html=1;" edge="1" parent="1" source="UVEDoom5NtU_PXQmaUk9-38" target="l_oBnXLqnLCH0bD2Jdfw-1">
          <mxGeometry relative="1" as="geometry">
            <Array as="points">
              <mxPoint x="560" y="680" />
            </Array>
          </mxGeometry>
        </mxCell>
        <mxCell id="l_oBnXLqnLCH0bD2Jdfw-5" value="&lt;span style=&quot;color: rgba(0, 0, 0, 0); font-family: monospace; font-size: 0px; text-align: start; background-color: rgb(236, 236, 236);&quot;&gt;%3CmxGraphModel%3E%3Croot%3E%3CmxCell%20id%3D%220%22%2F%3E%3CmxCell%20id%3D%221%22%20parent%3D%220%22%2F%3E%3CmxCell%20id%3D%222%22%20value%3D%22%26lt%3Bspan%20style%3D%26quot%3Bbackground-color%3A%20rgb(255%2C%20255%2C%20255)%3B%26quot%3B%26gt%3BCreate%26lt%3B%2Fspan%26gt%3B%22%20style%3D%22edgeLabel%3Bhtml%3D1%3Balign%3Dcenter%3BverticalAlign%3Dmiddle%3Bresizable%3D0%3Bpoints%3D%5B%5D%3BfontStyle%3D2%3BfontColor%3Dlight-dark(%231074e0%2C%20%23ededed)%3B%22%20vertex%3D%221%22%20connectable%3D%220%22%20parent%3D%221%22%3E%3CmxGeometry%20x%3D%22520%22%20y%3D%22410%22%20as%3D%22geometry%22%2F%3E%3C%2FmxCell%3E%3C%2Froot%3E%3C%2FmxGraphModel%3E&lt;/span&gt;" style="edgeLabel;html=1;align=center;verticalAlign=middle;resizable=0;points=[];" vertex="1" connectable="0" parent="l_oBnXLqnLCH0bD2Jdfw-4">
          <mxGeometry x="-0.5952" y="2" relative="1" as="geometry">
            <mxPoint as="offset" />
          </mxGeometry>
        </mxCell>
        <mxCell id="l_oBnXLqnLCH0bD2Jdfw-8" value="&lt;span style=&quot;color: rgb(16, 116, 224); font-style: italic;&quot;&gt;Create&lt;/span&gt;" style="edgeLabel;html=1;align=center;verticalAlign=middle;resizable=0;points=[];" vertex="1" connectable="0" parent="l_oBnXLqnLCH0bD2Jdfw-4">
          <mxGeometry x="-0.6217" y="3" relative="1" as="geometry">
            <mxPoint x="-6" y="66" as="offset" />
          </mxGeometry>
        </mxCell>
        <mxCell id="UVEDoom5NtU_PXQmaUk9-38" value="IAM Controller" style="sketch=0;outlineConnect=0;fontColor=#232F3E;gradientColor=none;fillColor=#ED7100;strokeColor=none;dashed=0;verticalLabelPosition=top;verticalAlign=bottom;align=center;html=1;fontSize=12;fontStyle=0;aspect=fixed;pointerEvents=1;shape=mxgraph.aws4.ecs_service;labelPosition=center;" parent="1" vertex="1">
          <mxGeometry x="550" y="320" width="39" height="48" as="geometry" />
        </mxCell>
        <mxCell id="l_oBnXLqnLCH0bD2Jdfw-9" style="edgeStyle=orthogonalEdgeStyle;rounded=0;orthogonalLoop=1;jettySize=auto;html=1;dashed=1;dashPattern=8 8;" edge="1" parent="1" source="l_oBnXLqnLCH0bD2Jdfw-1" target="UVEDoom5NtU_PXQmaUk9-39">
          <mxGeometry relative="1" as="geometry">
            <mxPoint x="760" y="370" as="targetPoint" />
            <Array as="points">
              <mxPoint x="700" y="680" />
              <mxPoint x="700" y="360" />
            </Array>
          </mxGeometry>
        </mxCell>
        <mxCell id="l_oBnXLqnLCH0bD2Jdfw-18" value="&lt;span style=&quot;color: rgb(16, 116, 224); font-style: italic;&quot;&gt;Authorize&lt;/span&gt;" style="edgeLabel;html=1;align=center;verticalAlign=middle;resizable=0;points=[];" vertex="1" connectable="0" parent="l_oBnXLqnLCH0bD2Jdfw-9">
          <mxGeometry x="0.1372" y="-1" relative="1" as="geometry">
            <mxPoint as="offset" />
          </mxGeometry>
        </mxCell>
        <mxCell id="l_oBnXLqnLCH0bD2Jdfw-1" value="&amp;nbsp;Role: Other Controllers" style="sketch=0;outlineConnect=0;fontColor=#232F3E;gradientColor=none;fillColor=#DD344C;strokeColor=none;dashed=0;verticalLabelPosition=bottom;verticalAlign=top;align=center;html=1;fontSize=12;fontStyle=0;aspect=fixed;pointerEvents=1;shape=mxgraph.aws4.role;" vertex="1" parent="1">
          <mxGeometry x="590" y="640" width="78" height="44" as="geometry" />
        </mxCell>
        <mxCell id="l_oBnXLqnLCH0bD2Jdfw-14" value="Application&lt;br&gt;Based on RG" style="fillColor=#EFF0F3;strokeColor=none;dashed=0;verticalAlign=top;fontStyle=0;fontColor=#232F3D;whiteSpace=wrap;html=1;" vertex="1" parent="1">
          <mxGeometry x="910" y="640" width="90" height="60" as="geometry" />
        </mxCell>
      </root>
    </mxGraphModel>
  </diagram>
</mxfile>
